<svg height="50.145" viewBox="0 0 202.969 50.145" width="202.969" xmlns="http://www.w3.org/2000/svg"><path d="m503.165 41.821a3.9 3.9 0 1 1 -3.9-3.9 3.9 3.9 0 0 1 3.9 3.9zm8.419 3.9h.009a3.618 3.618 0 0 0 2.57-1.071 3.789 3.789 0 0 0 1.115-2.7 16.634 16.634 0 0 0 -13.522-16.49 3.665 3.665 0 0 0 -.649-.058 3.619 3.619 0 0 0 -2.081.661 3.745 3.745 0 0 0 -1.547 2.452 3.8 3.8 0 0 0 2.916 4.372l.077.014a9.145 9.145 0 0 1 7.42 8.911v.133a3.742 3.742 0 0 0 3.693 3.772zm8.7-3.278a3.413 3.413 0 0 0 6.821 0 28.439 28.439 0 0 0 -7.037-18.659 30.008 30.008 0 0 0 -17.716-9.836 3.56 3.56 0 0 0 -.58-.048 3.382 3.382 0 0 0 -3.358 2.736 3.3 3.3 0 0 0 2.707 3.762l.083.015a22.524 22.524 0 0 1 19.08 21.7z" fill="#8520c5" transform="translate(-324.136 -13.896)"/><path d="m34.661 38.2v-3.708a.606.606 0 0 0 -.606-.606h-16.614a.606.606 0 0 0 -.606.606v3.708a.606.606 0 0 0 .606.606h5.486a.257.257 0 0 1 .256.257v18.391a.606.606 0 0 0 .606.606h3.918a.606.606 0 0 0 .606-.606v-18.393a.257.257 0 0 1 .256-.257h5.486a.606.606 0 0 0 .606-.604z" transform="translate(-16.835 -26.733)"/><path d="m74.6 53.656a5.049 5.049 0 0 0 -4.332 3.168.331.331 0 0 1 -.358.176.28.28 0 0 1 -.261-.237v-2.228a.606.606 0 0 0 -.606-.606h-3.8a.606.606 0 0 0 -.606.606v15.611a.606.606 0 0 0 .606.606h3.8a.606.606 0 0 0 .606-.606v-6.975c0-1.963 1.306-4.256 4.988-4.256h.042a.607.607 0 0 0 .617-.606v-4.053a.606.606 0 0 0 -.694-.6z" transform="translate(-47.529 -39.425)"/><path d="m116.673 52.712h-3.565a.606.606 0 0 0 -.606.606v.795a.256.256 0 0 1 -.451.168 6.37 6.37 0 0 0 -5.061-2.062c-4.582 0-8.172 3.977-8.172 9.054s3.59 9.054 8.172 9.054a6.371 6.371 0 0 0 5.062-2.063.267.267 0 0 1 .282-.072.263.263 0 0 1 .167.241v.795a.606.606 0 0 0 .606.606h3.565a.606.606 0 0 0 .606-.606v-15.909a.606.606 0 0 0 -.605-.607zm-4.171 8.56a4.267 4.267 0 0 1 -4.453 4.56 4.224 4.224 0 0 1 -4.453-4.56 4.223 4.223 0 0 1 4.453-4.559 4.267 4.267 0 0 1 4.451 4.56z" transform="translate(-69.482 -38.506)"/><path d="m173.2 53.6h-3.991a.606.606 0 0 0 -.576.417l-3.471 10.583a.256.256 0 0 1 -.487 0l-3.475-10.585a.606.606 0 0 0 -.576-.417h-3.991a.606.606 0 0 0 -.568.817l5.886 15.909a.607.607 0 0 0 .569.4h4.795a.607.607 0 0 0 .569-.4l5.886-15.909a.606.606 0 0 0 -.568-.817z" transform="translate(-106.221 -39.391)"/><path d="m217.168 52.219a8.791 8.791 0 0 0 -9.125 9.054 8.947 8.947 0 0 0 2.547 6.444 9.637 9.637 0 0 0 6.966 2.61 8.851 8.851 0 0 0 6.828-2.722.606.606 0 0 0 -.144-.935l-2.806-1.614a.606.606 0 0 0 -.677.049 5.121 5.121 0 0 1 -3.129 1.009c-2.328 0-3.833-.887-4.474-2.638a.256.256 0 0 1 .241-.344h11.791a.606.606 0 0 0 .6-.529 10.409 10.409 0 0 0 .083-1.332 8.688 8.688 0 0 0 -8.701-9.052zm3.907 7.376a.261.261 0 0 1 -.2.1h-7.583a.262.262 0 0 1 -.2-.1.259.259 0 0 1 -.043-.223 3.9 3.9 0 0 1 4.091-2.974 3.834 3.834 0 0 1 3.986 2.975.26.26 0 0 1 -.051.222z" transform="translate(-139.622 -38.506)"/><path d="m319.023 33.886h-4.117a.606.606 0 0 0 -.588.461l-4.106 16.625a.253.253 0 0 1 -.237.195.262.262 0 0 1 -.259-.188l-4.586-16.648a.606.606 0 0 0 -.584-.445h-3.271a.606.606 0 0 0 -.584.445l-4.591 16.648a.257.257 0 0 1 -.239.188.26.26 0 0 1 -.257-.2l-4.104-16.62a.606.606 0 0 0 -.588-.461h-4.112a.606.606 0 0 0 -.584.767l6.331 22.962a.606.606 0 0 0 .584.445h5.105a.606.606 0 0 0 .584-.445l3.846-13.932a.257.257 0 0 1 .495 0l3.839 13.933a.606.606 0 0 0 .584.445h5.105a.606.606 0 0 0 .584-.445l6.331-22.962a.606.606 0 0 0 -.584-.767z" transform="translate(-189.805 -26.733)"/><rect height="17.121" rx="1.694" width="4.778" x="132.192" y="14.207"/><path d="m424.668 40h-11.12a.257.257 0 0 1 -.256-.257 2.472 2.472 0 0 1 2.7-2.75.606.606 0 0 0 .583-.605v-3.354a.606.606 0 0 0 -.606-.606h-.057a7.454 7.454 0 0 0 -5.6 1.957 7.462 7.462 0 0 0 -1.8 5.362.257.257 0 0 1 -.257.257h-1.5a.606.606 0 0 0 -.606.606v3.354a.606.606 0 0 0 .606.606h1.5a.257.257 0 0 1 .257.257v11.691a.606.606 0 0 0 .606.606h3.565a.606.606 0 0 0 .606-.606v-11.692a.257.257 0 0 1 .256-.257h6.692a.257.257 0 0 1 .257.257v11.692a.606.606 0 0 0 .606.606h3.565a.606.606 0 0 0 .606-.606v-15.908a.606.606 0 0 0 -.603-.61z" transform="translate(-266.841 -25.796)"/><path d="m387.7 31.521a2.918 2.918 0 1 0 2.917 2.917 2.957 2.957 0 0 0 -2.917-2.917z" transform="translate(-253.115 -25.214)"/><path d="m448.819 31.521a2.918 2.918 0 1 0 2.917 2.917 2.957 2.957 0 0 0 -2.917-2.917z" transform="translate(-292.366 -25.214)"/><rect height="24.239" rx="1.694" width="4.777" x="88.94" y="7.089"/><path d="m291.157 133.366a4.1 4.1 0 0 1 -4.319 4.307 4.559 4.559 0 1 1 -.138-9.115 4.483 4.483 0 0 1 3.831 2l-1.7.977a2.62 2.62 0 1 0 -1.966 4.182 2.177 2.177 0 0 0 2.241-1.352h-2.341v-1.753h4.395z" transform="translate(-187.182 -87.528)"/><path d="m309.5 138.861a3.318 3.318 0 1 1 3.317 3.305 3.281 3.281 0 0 1 -3.317-3.305zm4.758 0a1.44 1.44 0 1 0 -1.44 1.477 1.4 1.4 0 0 0 1.442-1.477z" transform="translate(-204.775 -92.022)"/><path d="m341.946 130.977v1.69h3.254v1.933h-3.255v3.218h-2v-8.764h5.321v1.928z" transform="translate(-224.324 -87.843)"/><path d="m363.727 136.046v6.26h-1.878v-.588a2.141 2.141 0 0 1 -1.79.764 2.341 2.341 0 0 1 -2.341-2.592v-3.844h1.882v3.568a1.032 1.032 0 0 0 1.089 1.139c.688 0 1.164-.4 1.164-1.29v-3.418z" transform="translate(-235.738 -92.337)"/><path d="m382.117 135.7v2.128a1.48 1.48 0 0 0 -1.878 1.427v2.829h-1.878v-6.26h1.878v1.114a1.88 1.88 0 0 1 1.878-1.238z" transform="translate(-248.994 -92.112)"/><path d="m393.311 134.7v2.216c0 .538.463.588 1.29.538v1.7c-2.454.25-3.168-.488-3.168-2.241v-2.213h-1v-1.8h1v-1.189l1.878-.563v1.752h1.29v1.8z" transform="translate(-256.745 -89.191)"/><path d="m411.066 133.969v3.844h-1.878v-3.568a1.032 1.032 0 0 0 -1.089-1.139c-.688 0-1.164.4-1.164 1.29v3.418h-1.878v-8.764h1.878v3.092a2.141 2.141 0 0 1 1.79-.764 2.341 2.341 0 0 1 2.341 2.591z" transform="translate(-266.138 -87.843)"/><path d="m428.075 140.489a1.633 1.633 0 0 0 1.2-.476l1.5.864a3.178 3.178 0 0 1 -2.73 1.289 3.307 3.307 0 1 1 -.138-6.611 3.161 3.161 0 0 1 3.18 3.305 3.636 3.636 0 0 1 -.075.751h-4.445a1.424 1.424 0 0 0 1.508.878zm1.152-2.279a1.41 1.41 0 0 0 -2.692 0z" transform="translate(-278.676 -92.022)"/><path d="m449.506 135.7v2.128a1.48 1.48 0 0 0 -1.878 1.427v2.829h-1.878v-6.26h1.878v1.114a1.88 1.88 0 0 1 1.878-1.238z" transform="translate(-292.269 -92.112)"/><path d="m455.9 148.572a1.19 1.19 0 1 1 1.189 1.189 1.2 1.2 0 0 1 -1.189-1.189z" transform="translate(-298.785 -99.617)"/></svg>
